#tb 0: 1/25
0,          0,          0,        1,    36864, 0x954464be
0,          1,          1,        1,    36864, 0xace1d90b
0,          2,          2,        1,    36864, 0x8f149f03
0,          3,          3,        1,    36864, 0xea9b21eb
0,          4,          4,        1,    36864, 0xb51d9fe3
0,          5,          5,        1,    36864, 0x61bd11d7
0,          6,          6,        1,    36864, 0x9d36980f
0,          7,          7,        1,    36864, 0xa4192c5e
0,          8,          8,        1,    36864, 0x11006433
0,          9,          9,        1,    36864, 0x4a243e46
0,         10,         10,        1,    36864, 0x1807b5e8
0,         11,         11,        1,    36864, 0xbe37743c
0,         12,         12,        1,    36864, 0x82491319
0,         13,         13,        1,    36864, 0x006e9914
0,         14,         14,        1,    36864, 0xa5261884
0,         15,         15,        1,    36864, 0x2030c9d6
0,         16,         16,        1,    36864, 0xc80eb1ce
0,         17,         17,        1,    36864, 0x4d559791
0,         18,         18,        1,    36864, 0xf5f900ee
0,         19,         19,        1,    36864, 0x2cc9c0d7
0,         20,         20,        1,    36864, 0x5ba14186
0,         21,         21,        1,    36864, 0x47a46865
0,         22,         22,        1,    36864, 0x5ba180b7
0,         23,         23,        1,    36864, 0xc67c4876
0,         24,         24,        1,    36864, 0x4311d75d
0,         25,         25,        1,    36864, 0x56edb851
0,         26,         26,        1,    36864, 0x7e5aa3e0
0,         27,         27,        1,    36864, 0x8df8283a
0,         28,         28,        1,    36864, 0xb8583ddf
0,         29,         29,        1,    36864, 0xf33fb779
0,         30,         30,        1,    36864, 0xe9942ddc
0,         31,         31,        1,    36864, 0x2bc5f7fa
0,         32,         32,        1,    36864, 0xc7b66c65
0,         33,         33,        1,    36864, 0x1a524319
0,         34,         34,        1,    36864, 0xf60c6141
0,         35,         35,        1,    36864, 0x113f41f2
0,         36,         36,        1,    36864, 0xad191a31
0,         37,         37,        1,    36864, 0x3898264a
0,         38,         38,        1,    36864, 0x3c2f34a4
0,         39,         39,        1,    36864, 0xd0fc76aa
0,         40,         40,        1,    36864, 0x2870b546
0,         41,         41,        1,    36864, 0x7d326fb4
0,         42,         42,        1,    36864, 0xd7ed14e1
0,         43,         43,        1,    36864, 0x205174aa
0,         44,         44,        1,    36864, 0xa3a88be9
0,         45,         45,        1,    36864, 0xd6f01751
0,         46,         46,        1,    36864, 0x5420bb80
0,         47,         47,        1,    36864, 0xe14518f9
0,         48,         48,        1,    36864, 0x931db61e
0,         49,         49,        1,    36864, 0x052ecfae
0,         50,         50,        1,    36864, 0x29b1b0f5
0,         51,         51,        1,    36864, 0xa3057117
0,         52,         52,        1,    36864, 0x954464be
0,         53,         53,        1,    36864, 0xace1d90b
0,         54,         54,        1,    36864, 0x8f149f03
0,         55,         55,        1,    36864, 0x485722c5
0,         56,         56,        1,    36864, 0x534b18f9
0,         57,         57,        1,    36864, 0xc893a0a6
0,         58,         58,        1,    36864, 0x8b04e1dd
0,         59,         59,        1,    36864, 0xaf536964
